<svg xmlns="http://www.w3.org/2000/svg" xmlns:xlink="http://www.w3.org/1999/xlink" xmlns:jfreesvg="http://www.jfree.org/jfreesvg/svg" width="1095" height="664" text-rendering="auto" shape-rendering="auto">
<defs></defs>
<rect x="0" y="0" width="1095" height="664" style="fill: rgb(255,255,255); fill-opacity: 1.0" /><rect x="10" y="10" width="52" height="23" style="fill: rgb(235,235,235); fill-opacity: 1.0" /><rect x="10" y="10" width="52" height="23" style="stroke-width: 1.0;stroke: rgb(0,0,0);stroke-opacity: 1.0;stroke-linecap: square;; fill: none" /><g ><text x="14" y="26" style="fill: rgb(0,0,0); fill-opacity: 1.0; font-family: sans-serif; font-size: 12px;" >Initiator</text></g><line x1="25" y1="33" x2="25" y2="91" style="stroke-width: 1.0;stroke: rgb(128,128,128);stroke-opacity: 1.0;stroke-linejoin: bevel;stroke-dasharray: 3.0;" /><rect x="274" y="10" width="60" height="23" style="fill: rgb(235,235,235); fill-opacity: 1.0" /><rect x="274" y="10" width="60" height="23" style="stroke-width: 1.0;stroke: rgb(0,0,0);stroke-opacity: 1.0;stroke-linecap: square;; fill: none" /><g ><text x="278" y="26" style="fill: rgb(0,0,0); fill-opacity: 1.0; font-family: sans-serif; font-size: 12px;" >Acceptor</text></g><line x1="289" y1="33" x2="289" y2="150" style="stroke-width: 1.0;stroke: rgb(128,128,128);stroke-opacity: 1.0;stroke-linejoin: bevel;stroke-dasharray: 3.0;" /><line x1="25" y1="48" x2="55" y2="48" style="stroke-width: 1.0;stroke: rgb(0,0,0);stroke-opacity: 1.0;stroke-linecap: square;" /><line x1="55" y1="48" x2="55" y2="101" style="stroke-width: 1.0;stroke: rgb(0,0,0);stroke-opacity: 1.0;stroke-linecap: square;" /><line x1="55" y1="101" x2="40" y2="101" style="stroke-width: 1.0;stroke: rgb(0,0,0);stroke-opacity: 1.0;stroke-linecap: square;" /><g style="fill: rgb(0,0,0); fill-opacity: 1.0; stroke: none" ><path d="M 40 101 L 47 97 L 47 105 Z "/></g><rect x="62" y="48" width="167" height="53" style="fill: rgb(255,255,255); fill-opacity: 1.0" /><g ><text x="66" y="64" style="fill: rgb(0,0,0); fill-opacity: 1.0; font-family: sans-serif; font-size: 12px;" >GraphForDocsFlow$Initiator</text></g><g ><text x="66" y="79" style="fill: rgb(0,0,0); fill-opacity: 1.0; font-family: sans-serif; font-size: 12px;" >@StartableByRPC</text></g><g ><text x="66" y="94" style="fill: rgb(0,0,0); fill-opacity: 1.0; font-family: sans-serif; font-size: 12px;" >@InitiatingFlow</text></g><rect x="10" y="91" width="30" height="477" style="fill: rgb(166,112,170); fill-opacity: 1.0" /><rect x="10" y="91" width="30" height="477" style="stroke-width: 1.0;stroke: rgb(0,0,0);stroke-opacity: 1.0;stroke-linecap: square;; fill: none" /><rect x="25" y="111" width="229" height="23" style="fill: rgb(255,255,255); fill-opacity: 1.0" /><rect x="25" y="111" width="229" height="23" style="stroke-width: 1.0;stroke: rgb(0,0,0);stroke-opacity: 1.0;stroke-linecap: square;; fill: none" /><g ><text x="29" y="127" style="fill: rgb(0,0,0); fill-opacity: 1.0; font-family: sans-serif; font-size: 12px;" >otherSession = initiateFlow(otherParty)</text></g><rect x="25" y="203" width="74" height="23" style="fill: rgb(255,255,255); fill-opacity: 1.0" /><rect x="25" y="203" width="74" height="23" style="stroke-width: 1.0;stroke: rgb(0,0,0);stroke-opacity: 1.0;stroke-linecap: square;; fill: none" /><g ><text x="29" y="219" style="fill: rgb(0,0,0); fill-opacity: 1.0; font-family: sans-serif; font-size: 12px;" >send(Party)</text></g><rect x="25" y="535" width="90" height="23" style="fill: rgb(255,255,255); fill-opacity: 1.0" /><rect x="25" y="535" width="90" height="23" style="stroke-width: 1.0;stroke: rgb(0,0,0);stroke-opacity: 1.0;stroke-linecap: square;; fill: none" /><g ><text x="29" y="551" style="fill: rgb(0,0,0); fill-opacity: 1.0; font-family: sans-serif; font-size: 12px;" >receive(String)</text></g><line x1="289" y1="122" x2="319" y2="122" style="stroke-width: 1.0;stroke: rgb(0,0,0);stroke-opacity: 1.0;stroke-linecap: square;" /><line x1="319" y1="122" x2="319" y2="160" style="stroke-width: 1.0;stroke: rgb(0,0,0);stroke-opacity: 1.0;stroke-linecap: square;" /><line x1="319" y1="160" x2="304" y2="160" style="stroke-width: 1.0;stroke: rgb(0,0,0);stroke-opacity: 1.0;stroke-linecap: square;" /><g style="fill: rgb(0,0,0); fill-opacity: 1.0; stroke: none" ><path d="M 304 160 L 311 156 L 311 164 Z "/></g><rect x="326" y="122" width="244" height="38" style="fill: rgb(255,255,255); fill-opacity: 1.0" /><g ><text x="330" y="138" style="fill: rgb(0,0,0); fill-opacity: 1.0; font-family: sans-serif; font-size: 12px;" >GraphForDocsFlow$Acceptor</text></g><g ><text x="330" y="153" style="fill: rgb(0,0,0); fill-opacity: 1.0; font-family: sans-serif; font-size: 12px;" >@InitiatedBy(GraphForDocsFlow$Initiator)</text></g><rect x="274" y="150" width="30" height="504" style="fill: rgb(166,112,170); fill-opacity: 1.0" /><rect x="274" y="150" width="30" height="504" style="stroke-width: 1.0;stroke: rgb(0,0,0);stroke-opacity: 1.0;stroke-linecap: square;; fill: none" /><rect x="289" y="170" width="199" height="23" style="fill: rgb(255,255,255); fill-opacity: 1.0" /><rect x="289" y="170" width="199" height="23" style="stroke-width: 1.0;stroke: rgb(0,0,0);stroke-opacity: 1.0;stroke-linecap: square;; fill: none" /><g ><text x="293" y="186" style="fill: rgb(0,0,0); fill-opacity: 1.0; font-family: sans-serif; font-size: 12px;" >session = initiateFlow(otherParty)</text></g><rect x="289" y="203" width="87" height="23" style="fill: rgb(255,255,255); fill-opacity: 1.0" /><rect x="289" y="203" width="87" height="23" style="stroke-width: 1.0;stroke: rgb(0,0,0);stroke-opacity: 1.0;stroke-linecap: square;; fill: none" /><g ><text x="293" y="219" style="fill: rgb(0,0,0); fill-opacity: 1.0; font-family: sans-serif; font-size: 12px;" >receive(Party)</text></g><line x1="304" y1="236" x2="334" y2="236" style="stroke-width: 1.0;stroke: rgb(0,0,0);stroke-opacity: 1.0;stroke-linecap: square;" /><line x1="334" y1="236" x2="334" y2="274" style="stroke-width: 1.0;stroke: rgb(0,0,0);stroke-opacity: 1.0;stroke-linecap: square;" /><line x1="334" y1="274" x2="319" y2="274" style="stroke-width: 1.0;stroke: rgb(0,0,0);stroke-opacity: 1.0;stroke-linecap: square;" /><g style="fill: rgb(0,0,0); fill-opacity: 1.0; stroke: none" ><path d="M 319 274 L 326 270 L 326 278 Z "/></g><rect x="341" y="236" width="295" height="38" style="fill: rgb(255,255,255); fill-opacity: 1.0" /><g ><text x="345" y="252" style="fill: rgb(0,0,0); fill-opacity: 1.0; font-family: sans-serif; font-size: 12px;" >GraphForDocsFlow$SendMultipleTransactionsFlow</text></g><g ><text x="345" y="267" style="fill: rgb(0,0,0); fill-opacity: 1.0; font-family: sans-serif; font-size: 12px;" >@InitiatingFlow</text></g><rect x="289" y="264" width="30" height="215" style="fill: rgb(255,175,175); fill-opacity: 1.0" /><rect x="289" y="264" width="30" height="215" style="stroke-width: 1.0;stroke: rgb(0,0,0);stroke-opacity: 1.0;stroke-linecap: square;; fill: none" /><rect x="304" y="284" width="170" height="23" style="fill: rgb(255,255,255); fill-opacity: 1.0" /><rect x="304" y="284" width="170" height="23" style="stroke-width: 1.0;stroke: rgb(0,0,0);stroke-opacity: 1.0;stroke-linecap: square;; fill: none" /><g ><text x="308" y="300" style="fill: rgb(0,0,0); fill-opacity: 1.0; font-family: sans-serif; font-size: 12px;" >session = initiateFlow(party)</text></g><line x1="319" y1="317" x2="349" y2="317" style="stroke-width: 1.0;stroke: rgb(0,0,0);stroke-opacity: 1.0;stroke-linecap: square;" /><line x1="349" y1="317" x2="349" y2="340" style="stroke-width: 1.0;stroke: rgb(0,0,0);stroke-opacity: 1.0;stroke-linecap: square;" /><line x1="349" y1="340" x2="334" y2="340" style="stroke-width: 1.0;stroke: rgb(0,0,0);stroke-opacity: 1.0;stroke-linecap: square;" /><g style="fill: rgb(0,0,0); fill-opacity: 1.0; stroke: none" ><path d="M 334 340 L 341 336 L 341 344 Z "/></g><rect x="356" y="317" width="299" height="23" style="fill: rgb(255,255,255); fill-opacity: 1.0" /><g ><text x="360" y="333" style="fill: rgb(128,128,128); fill-opacity: 1.0; font-family: sans-serif; font-size: 12px;" >for(SignedTransaction transaction : transactionList)</text></g><rect x="304" y="330" width="30" height="96" style="fill: rgb(192,192,192); fill-opacity: 1.0" /><rect x="304" y="330" width="30" height="96" style="stroke-width: 1.0;stroke: rgb(0,0,0);stroke-opacity: 1.0;stroke-linecap: square;; fill: none" /><rect x="319" y="350" width="90" height="23" style="fill: rgb(255,255,255); fill-opacity: 1.0" /><rect x="319" y="350" width="90" height="23" style="stroke-width: 1.0;stroke: rgb(0,0,0);stroke-opacity: 1.0;stroke-linecap: square;; fill: none" /><g ><text x="323" y="366" style="fill: rgb(0,0,0); fill-opacity: 1.0; font-family: sans-serif; font-size: 12px;" >send(Boolean)</text></g><line x1="334" y1="383" x2="364" y2="383" style="stroke-width: 1.0;stroke: rgb(0,0,0);stroke-opacity: 1.0;stroke-linecap: square;" /><line x1="364" y1="383" x2="364" y2="406" style="stroke-width: 1.0;stroke: rgb(0,0,0);stroke-opacity: 1.0;stroke-linecap: square;" /><line x1="364" y1="406" x2="349" y2="406" style="stroke-width: 1.0;stroke: rgb(0,0,0);stroke-opacity: 1.0;stroke-linecap: square;" /><g style="fill: rgb(0,0,0); fill-opacity: 1.0; stroke: none" ><path d="M 349 406 L 356 402 L 356 410 Z "/></g><rect x="371" y="383" width="183" height="23" style="fill: rgb(255,255,255); fill-opacity: 1.0" /><g ><text x="375" y="399" style="fill: rgb(0,0,0); fill-opacity: 1.0; font-family: sans-serif; font-size: 12px;" >subFlow(SendTransactionFlow)</text></g><rect x="319" y="396" width="30" height="20" style="fill: rgb(255,200,0); fill-opacity: 1.0" /><rect x="319" y="396" width="30" height="20" style="stroke-width: 1.0;stroke: rgb(0,0,0);stroke-opacity: 1.0;stroke-linecap: square;; fill: none" /><rect x="304" y="436" width="90" height="23" style="fill: rgb(255,255,255); fill-opacity: 1.0" /><rect x="304" y="436" width="90" height="23" style="stroke-width: 1.0;stroke: rgb(0,0,0);stroke-opacity: 1.0;stroke-linecap: square;; fill: none" /><g ><text x="308" y="452" style="fill: rgb(0,0,0); fill-opacity: 1.0; font-family: sans-serif; font-size: 12px;" >send(Boolean)</text></g><line x1="319" y1="469" x2="334" y2="469" style="stroke-width: 1.0;stroke: rgb(0,0,0);stroke-opacity: 1.0;stroke-linecap: square;" /><line x1="334" y1="469" x2="334" y2="492" style="stroke-width: 1.0;stroke: rgb(0,0,0);stroke-opacity: 1.0;stroke-linecap: square;" /><line x1="334" y1="492" x2="304" y2="492" style="stroke-width: 1.0;stroke: rgb(0,0,0);stroke-opacity: 1.0;stroke-linecap: square;" /><g style="fill: rgb(0,0,0); fill-opacity: 1.0; stroke: none" ><path d="M 304 492 L 311 488 L 311 496 Z "/></g><rect x="341" y="469" width="54" height="23" style="fill: rgb(255,255,255); fill-opacity: 1.0" /><g ><text x="345" y="485" style="fill: rgb(128,128,128); fill-opacity: 1.0; font-family: sans-serif; font-size: 12px;" >Boolean</text></g><line x1="683" y1="295" x2="713" y2="295" style="stroke-width: 1.0;stroke: rgb(0,0,0);stroke-opacity: 1.0;stroke-linecap: square;" /><line x1="713" y1="295" x2="713" y2="333" style="stroke-width: 1.0;stroke: rgb(0,0,0);stroke-opacity: 1.0;stroke-linecap: square;" /><line x1="713" y1="333" x2="698" y2="333" style="stroke-width: 1.0;stroke: rgb(0,0,0);stroke-opacity: 1.0;stroke-linecap: square;" /><g style="fill: rgb(0,0,0); fill-opacity: 1.0; stroke: none" ><path d="M 698 333 L 705 329 L 705 337 Z "/></g><rect x="720" y="295" width="372" height="38" style="fill: rgb(255,255,255); fill-opacity: 1.0" /><g ><text x="724" y="311" style="fill: rgb(0,0,0); fill-opacity: 1.0; font-family: sans-serif; font-size: 12px;" >GraphForDocsFlow$ReceiveMultipleTransactionsFlow</text></g><g ><text x="724" y="326" style="fill: rgb(0,0,0); fill-opacity: 1.0; font-family: sans-serif; font-size: 12px;" >@InitiatedBy(GraphForDocsFlow$SendMultipleTransactionsFlow)</text></g><rect x="668" y="323" width="30" height="136" style="fill: rgb(255,175,175); fill-opacity: 1.0" /><rect x="668" y="323" width="30" height="136" style="stroke-width: 1.0;stroke: rgb(0,0,0);stroke-opacity: 1.0;stroke-linecap: square;; fill: none" /><line x1="698" y1="350" x2="728" y2="350" style="stroke-width: 1.0;stroke: rgb(0,0,0);stroke-opacity: 1.0;stroke-linecap: square;" /><line x1="728" y1="350" x2="728" y2="373" style="stroke-width: 1.0;stroke: rgb(0,0,0);stroke-opacity: 1.0;stroke-linecap: square;" /><line x1="728" y1="373" x2="713" y2="373" style="stroke-width: 1.0;stroke: rgb(0,0,0);stroke-opacity: 1.0;stroke-linecap: square;" /><g style="fill: rgb(0,0,0); fill-opacity: 1.0; stroke: none" ><path d="M 713 373 L 720 369 L 720 377 Z "/></g><rect x="735" y="350" width="216" height="23" style="fill: rgb(255,255,255); fill-opacity: 1.0" /><rect x="735" y="350" width="216" height="23" style="stroke-width: 1.0;stroke: rgb(0,0,0);stroke-opacity: 1.0;stroke-linecap: square;; fill: none" /><g ><text x="739" y="366" style="fill: rgb(0,0,0); fill-opacity: 1.0; font-family: sans-serif; font-size: 12px;" >while((receive(Boolean)) || condition)</text></g><rect x="683" y="363" width="30" height="86" style="fill: rgb(192,192,192); fill-opacity: 1.0" /><rect x="683" y="363" width="30" height="86" style="stroke-width: 1.0;stroke: rgb(0,0,0);stroke-opacity: 1.0;stroke-linecap: square;; fill: none" /><line x1="713" y1="383" x2="743" y2="383" style="stroke-width: 1.0;stroke: rgb(0,0,0);stroke-opacity: 1.0;stroke-linecap: square;" /><line x1="743" y1="383" x2="743" y2="406" style="stroke-width: 1.0;stroke: rgb(0,0,0);stroke-opacity: 1.0;stroke-linecap: square;" /><line x1="743" y1="406" x2="728" y2="406" style="stroke-width: 1.0;stroke: rgb(0,0,0);stroke-opacity: 1.0;stroke-linecap: square;" /><g style="fill: rgb(0,0,0); fill-opacity: 1.0; stroke: none" ><path d="M 728 406 L 735 402 L 735 410 Z "/></g><rect x="750" y="383" width="199" height="23" style="fill: rgb(255,255,255); fill-opacity: 1.0" /><g ><text x="754" y="399" style="fill: rgb(0,0,0); fill-opacity: 1.0; font-family: sans-serif; font-size: 12px;" >subFlow(ReceiveTransactionFlow)</text></g><rect x="698" y="396" width="30" height="30" style="fill: rgb(255,200,0); fill-opacity: 1.0" /><rect x="698" y="396" width="30" height="30" style="stroke-width: 1.0;stroke: rgb(0,0,0);stroke-opacity: 1.0;stroke-linecap: square;; fill: none" /><line x1="728" y1="416" x2="743" y2="416" style="stroke-width: 1.0;stroke: rgb(0,0,0);stroke-opacity: 1.0;stroke-linecap: square;" /><line x1="743" y1="416" x2="743" y2="439" style="stroke-width: 1.0;stroke: rgb(0,0,0);stroke-opacity: 1.0;stroke-linecap: square;" /><line x1="743" y1="439" x2="713" y2="439" style="stroke-width: 1.0;stroke: rgb(0,0,0);stroke-opacity: 1.0;stroke-linecap: square;" /><g style="fill: rgb(0,0,0); fill-opacity: 1.0; stroke: none" ><path d="M 713 439 L 720 435 L 720 443 Z "/></g><rect x="750" y="416" width="114" height="23" style="fill: rgb(255,255,255); fill-opacity: 1.0" /><g ><text x="754" y="432" style="fill: rgb(128,128,128); fill-opacity: 1.0; font-family: sans-serif; font-size: 12px;" >SignedTransaction</text></g><line x1="474" y1="295" x2="682" y2="295" style="stroke-width: 1.0;stroke: rgb(0,0,0);stroke-opacity: 1.0;stroke-linecap: square;" /><rect x="287" y="234" width="800" height="260" style="stroke-width: 1.0;stroke: rgb(192,192,192);stroke-opacity: 1.0;stroke-linejoin: bevel;stroke-dasharray: 3.0;; fill: none" /><line x1="409" y1="361" x2="735" y2="361" style="stroke-width: 1.0;stroke: rgb(128,128,128);stroke-opacity: 1.0;stroke-linejoin: bevel;stroke-dasharray: 3.0;" /><g style="fill: rgb(128,128,128); fill-opacity: 1.0; stroke: none" ><path d="M 735 361 L 728 365 L 728 357 Z "/></g><line x1="554" y1="394" x2="750" y2="394" style="stroke-width: 1.0;stroke: rgb(128,128,128);stroke-opacity: 1.0;stroke-linejoin: bevel;stroke-dasharray: 3.0;" /><g style="fill: rgb(128,128,128); fill-opacity: 1.0; stroke: none" ><path d="M 750 394 L 743 398 L 743 390 Z "/></g><line x1="394" y1="447" x2="735" y2="361" style="stroke-width: 1.0;stroke: rgb(128,128,128);stroke-opacity: 1.0;stroke-linejoin: bevel;stroke-dasharray: 3.0;" /><g style="fill: rgb(128,128,128); fill-opacity: 1.0; stroke: none" ><path d="M 735 361 L 729 366 L 727 358 Z "/></g><line x1="304" y1="502" x2="334" y2="502" style="stroke-width: 1.0;stroke: rgb(0,0,0);stroke-opacity: 1.0;stroke-linecap: square;" /><line x1="334" y1="502" x2="334" y2="525" style="stroke-width: 1.0;stroke: rgb(0,0,0);stroke-opacity: 1.0;stroke-linecap: square;" /><line x1="334" y1="525" x2="319" y2="525" style="stroke-width: 1.0;stroke: rgb(0,0,0);stroke-opacity: 1.0;stroke-linecap: square;" /><g style="fill: rgb(0,0,0); fill-opacity: 1.0; stroke: none" ><path d="M 319 525 L 326 521 L 326 529 Z "/></g><rect x="341" y="502" width="91" height="23" style="fill: rgb(255,255,255); fill-opacity: 1.0" /><g ><text x="345" y="518" style="fill: rgb(128,128,128); fill-opacity: 1.0; font-family: sans-serif; font-size: 12px;" >if(returnValue)</text></g><rect x="289" y="515" width="30" height="53" style="fill: rgb(192,192,192); fill-opacity: 1.0" /><rect x="289" y="515" width="30" height="53" style="stroke-width: 1.0;stroke: rgb(0,0,0);stroke-opacity: 1.0;stroke-linecap: square;; fill: none" /><rect x="304" y="535" width="77" height="23" style="fill: rgb(255,255,255); fill-opacity: 1.0" /><rect x="304" y="535" width="77" height="23" style="stroke-width: 1.0;stroke: rgb(0,0,0);stroke-opacity: 1.0;stroke-linecap: square;; fill: none" /><g ><text x="308" y="551" style="fill: rgb(0,0,0); fill-opacity: 1.0; font-family: sans-serif; font-size: 12px;" >send(String)</text></g><line x1="304" y1="578" x2="334" y2="578" style="stroke-width: 1.0;stroke: rgb(0,0,0);stroke-opacity: 1.0;stroke-linecap: square;" /><line x1="334" y1="578" x2="334" y2="601" style="stroke-width: 1.0;stroke: rgb(0,0,0);stroke-opacity: 1.0;stroke-linecap: square;" /><line x1="334" y1="601" x2="319" y2="601" style="stroke-width: 1.0;stroke: rgb(0,0,0);stroke-opacity: 1.0;stroke-linecap: square;" /><g style="fill: rgb(0,0,0); fill-opacity: 1.0; stroke: none" ><path d="M 319 601 L 326 597 L 326 605 Z "/></g><rect x="341" y="578" width="32" height="23" style="fill: rgb(255,255,255); fill-opacity: 1.0" /><g ><text x="345" y="594" style="fill: rgb(0,0,0); fill-opacity: 1.0; font-family: sans-serif; font-size: 12px;" >else</text></g><rect x="289" y="591" width="30" height="53" style="fill: rgb(192,192,192); fill-opacity: 1.0" /><rect x="289" y="591" width="30" height="53" style="stroke-width: 1.0;stroke: rgb(0,0,0);stroke-opacity: 1.0;stroke-linecap: square;; fill: none" /><rect x="304" y="611" width="77" height="23" style="fill: rgb(255,255,255); fill-opacity: 1.0" /><rect x="304" y="611" width="77" height="23" style="stroke-width: 1.0;stroke: rgb(0,0,0);stroke-opacity: 1.0;stroke-linecap: square;; fill: none" /><g ><text x="308" y="627" style="fill: rgb(0,0,0); fill-opacity: 1.0; font-family: sans-serif; font-size: 12px;" >send(String)</text></g><line x1="254" y1="122" x2="288" y2="122" style="stroke-width: 1.0;stroke: rgb(0,0,0);stroke-opacity: 1.0;stroke-linecap: square;" /><line x1="99" y1="214" x2="289" y2="214" style="stroke-width: 1.0;stroke: rgb(128,128,128);stroke-opacity: 1.0;stroke-linejoin: bevel;stroke-dasharray: 3.0;" /><g style="fill: rgb(128,128,128); fill-opacity: 1.0; stroke: none" ><path d="M 289 214 L 282 218 L 282 210 Z "/></g><line x1="409" y1="361" x2="735" y2="361" style="stroke-width: 1.0;stroke: rgb(128,128,128);stroke-opacity: 1.0;stroke-linejoin: bevel;stroke-dasharray: 3.0;" /><g style="fill: rgb(128,128,128); fill-opacity: 1.0; stroke: none" ><path d="M 735 361 L 728 365 L 728 357 Z "/></g><line x1="554" y1="394" x2="750" y2="394" style="stroke-width: 1.0;stroke: rgb(128,128,128);stroke-opacity: 1.0;stroke-linejoin: bevel;stroke-dasharray: 3.0;" /><g style="fill: rgb(128,128,128); fill-opacity: 1.0; stroke: none" ><path d="M 750 394 L 743 398 L 743 390 Z "/></g><line x1="394" y1="447" x2="735" y2="361" style="stroke-width: 1.0;stroke: rgb(128,128,128);stroke-opacity: 1.0;stroke-linejoin: bevel;stroke-dasharray: 3.0;" /><g style="fill: rgb(128,128,128); fill-opacity: 1.0; stroke: none" ><path d="M 735 361 L 729 366 L 727 358 Z "/></g><line x1="304" y1="546" x2="115" y2="546" style="stroke-width: 1.0;stroke: rgb(128,128,128);stroke-opacity: 1.0;stroke-linejoin: bevel;stroke-dasharray: 3.0;" /><g style="fill: rgb(128,128,128); fill-opacity: 1.0; stroke: none" ><path d="M 115 546 L 122 542 L 122 550 Z "/></g><line x1="304" y1="622" x2="115" y2="546" style="stroke-width: 1.0;stroke: rgb(128,128,128);stroke-opacity: 1.0;stroke-linejoin: bevel;stroke-dasharray: 3.0;" /><g style="fill: rgb(128,128,128); fill-opacity: 1.0; stroke: none" ><path d="M 115 546 L 122 544 L 120 552 Z "/></g><line x1="10" y1="48" x2="25" y2="48" style="stroke-width: 1.0;stroke: rgb(0,0,0);stroke-opacity: 1.0;stroke-linecap: square;" /></svg>