<svg xmlns="http://www.w3.org/2000/svg" xmlns:xlink="http://www.w3.org/1999/xlink" xmlns:jfreesvg="http://www.jfree.org/jfreesvg/svg" width="964" height="512" text-rendering="auto" shape-rendering="auto">
<defs></defs>
<rect x="0" y="0" width="964" height="512" style="fill: rgb(255,255,255); fill-opacity: 1.0" /><rect x="10" y="10" width="59" height="31" style="fill: rgb(255,255,255); fill-opacity: 1.0" /><rect x="10" y="10" width="59" height="31" style="stroke-width: 1.0;stroke: rgb(0,0,0);stroke-opacity: 1.0;stroke-linecap: square;; fill: none" /><g style="fill: rgb(0,0,0); fill-opacity: 1.0; stroke: none" ><path d="M 19.11 30 L 19.11 21.33 L 20.34 21.33 L 20.34 30 Z  M 22.15 30 L 22.15 23.64 L 23.31 23.64 L 23.31 24.83 Q 24.22 23.5 25.55 23.5 Q 26.37 23.5 26.87 24.02 Q 27.36 24.54 27.36 25.43 L 27.36 30 L 26.2 30 L 26.2 25.8 Q 26.2 25.1 26 24.79 Q 25.79 24.49 25.31 24.49 Q 24.25 24.49 23.31 25.88 L 23.31 30 Z  M 29.15 30 L 29.15 23.64 L 30.31 23.64 L 30.31 30 Z  M 29.15 22.48 L 29.15 21.33 L 30.31 21.33 L 30.31 22.48 Z  M 34.06 30.15 Q 33.19 30.15 32.69 29.64 Q 32.2 29.14 32.2 28.24 L 32.2 24.5 L 31.4 24.5 L 31.4 23.64 L 32.2 23.64 L 32.2 22.48 L 33.36 22.37 L 33.36 23.64 L 35.02 23.64 L 35.02 24.5 L 33.36 24.5 L 33.36 28.03 Q 33.36 29.28 34.43 29.28 Q 34.66 29.28 34.99 29.2 L 34.99 30 Q 34.46 30.15 34.06 30.15 Z  M 36.15 30 L 36.15 23.64 L 37.31 23.64 L 37.31 30 Z  M 36.15 22.48 L 36.15 21.33 L 37.31 21.33 L 37.31 22.48 Z  M 42.44 29.19 Q 41.4 30.15 40.44 30.15 Q 39.65 30.15 39.12 29.65 Q 38.6 29.16 38.6 28.4 Q 38.6 27.36 39.48 26.8 Q 40.36 26.24 41.99 26.24 L 42.27 26.24 L 42.27 25.47 Q 42.27 24.36 41.13 24.36 Q 40.21 24.36 39.15 24.93 L 39.15 23.97 Q 40.32 23.5 41.34 23.5 Q 42.41 23.5 42.91 23.98 Q 43.42 24.46 43.42 25.47 L 43.42 28.35 Q 43.42 29.34 44.03 29.34 Q 44.11 29.34 44.25 29.32 L 44.33 29.96 Q 43.94 30.15 43.47 30.15 Q 42.66 30.15 42.44 29.19 Z  M 42.27 28.56 L 42.27 26.92 L 41.88 26.91 Q 40.93 26.91 40.34 27.27 Q 39.76 27.63 39.76 28.21 Q 39.76 28.63 40.05 28.92 Q 40.34 29.2 40.77 29.2 Q 41.49 29.2 42.27 28.56 Z  M 48.06 30.15 Q 47.19 30.15 46.69 29.64 Q 46.2 29.14 46.2 28.24 L 46.2 24.5 L 45.4 24.5 L 45.4 23.64 L 46.2 23.64 L 46.2 22.48 L 47.36 22.37 L 47.36 23.64 L 49.02 23.64 L 49.02 24.5 L 47.36 24.5 L 47.36 28.03 Q 47.36 29.28 48.43 29.28 Q 48.66 29.28 48.99 29.2 L 48.99 30 Q 48.46 30.15 48.06 30.15 Z  M 52.64 30.15 Q 51.28 30.15 50.46 29.24 Q 49.65 28.34 49.65 26.82 Q 49.65 25.28 50.47 24.39 Q 51.29 23.5 52.69 23.5 Q 54.09 23.5 54.9 24.39 Q 55.72 25.28 55.72 26.81 Q 55.72 28.37 54.9 29.26 Q 54.08 30.15 52.64 30.15 Z  M 52.66 29.28 Q 54.5 29.28 54.5 26.81 Q 54.5 24.36 52.69 24.36 Q 50.88 24.36 50.88 26.82 Q 50.88 29.28 52.66 29.28 Z  M 57.15 30 L 57.15 23.64 L 58.31 23.64 L 58.31 24.83 Q 58.99 23.5 60.3 23.5 Q 60.48 23.5 60.67 23.53 L 60.67 24.6 Q 60.37 24.5 60.14 24.5 Q 59.05 24.5 58.31 25.8 L 58.31 30 Z "/></g><line x1="18" y1="30.67" x2="61" y2="30.67" style="stroke-width: 1.0;stroke: rgb(0,0,0);stroke-opacity: 1.0;" /><line x1="25" y1="41" x2="25" y2="66" style="stroke-width: 1.0;stroke: rgb(0,0,0);stroke-opacity: 1.0;stroke-linejoin: bevel;stroke-dasharray: 3.0;" /><rect x="10" y="66" width="30" height="441" style="fill: rgb(166,112,170); fill-opacity: 1.0" /><rect x="10" y="66" width="30" height="441" style="stroke-width: 1.0;stroke: rgb(0,0,0);stroke-opacity: 1.0;stroke-linecap: square;; fill: none" /><line x1="40" y1="76" x2="70" y2="76" style="stroke-width: 1.0;stroke: rgb(0,0,0);stroke-opacity: 1.0;stroke-linecap: square;" /><line x1="70" y1="76" x2="70" y2="96" style="stroke-width: 1.0;stroke: rgb(0,0,0);stroke-opacity: 1.0;stroke-linecap: square;" /><line x1="70" y1="96" x2="55" y2="96" style="stroke-width: 1.0;stroke: rgb(0,0,0);stroke-opacity: 1.0;stroke-linecap: square;" /><g style="fill: rgb(0,0,0); fill-opacity: 1.0; stroke: none" ><path d="M 55 96 L 62 92 L 62 100 Z "/></g><rect x="77" y="75" width="190" height="23" style="fill: rgb(255,255,255); fill-opacity: 1.0" /><g ><text x="81" y="91" style="fill: rgb(0,0,0); fill-opacity: 1.0; font-family: sans-serif; font-size: 12px;" >[36] methodReturningASession()</text></g><rect x="25" y="86" width="30" height="53" style="fill: rgb(255,175,175); fill-opacity: 1.0" /><rect x="25" y="86" width="30" height="53" style="stroke-width: 1.0;stroke: rgb(0,0,0);stroke-opacity: 1.0;stroke-linecap: square;; fill: none" /><rect x="40" y="106" width="147" height="23" style="fill: rgb(255,255,255); fill-opacity: 1.0" /><rect x="40" y="106" width="147" height="23" style="stroke-width: 1.0;stroke: rgb(0,0,0);stroke-opacity: 1.0;stroke-linecap: square;; fill: none" /><g ><text x="44" y="122" style="fill: rgb(0,0,0); fill-opacity: 1.0; font-family: sans-serif; font-size: 12px;" >[55] initiateFlow(session)</text></g><rect x="25" y="149" width="670" height="23" style="fill: rgb(255,255,255); fill-opacity: 1.0" /><g ><text x="29" y="165" style="fill: rgb(0,0,0); fill-opacity: 1.0; font-family: sans-serif; font-size: 12px;" >[36] final int value = methodWithSessionAsArgumentReturningClassWithGetter(methodReturningASession()).getValue()</text></g><line x1="40" y1="182" x2="70" y2="182" style="stroke-width: 1.0;stroke: rgb(0,0,0);stroke-opacity: 1.0;stroke-linecap: square;" /><line x1="70" y1="182" x2="70" y2="202" style="stroke-width: 1.0;stroke: rgb(0,0,0);stroke-opacity: 1.0;stroke-linecap: square;" /><line x1="70" y1="202" x2="55" y2="202" style="stroke-width: 1.0;stroke: rgb(0,0,0);stroke-opacity: 1.0;stroke-linecap: square;" /><g style="fill: rgb(0,0,0); fill-opacity: 1.0; stroke: none" ><path d="M 55 202 L 62 198 L 62 206 Z "/></g><rect x="77" y="181" width="190" height="23" style="fill: rgb(255,255,255); fill-opacity: 1.0" /><g ><text x="81" y="197" style="fill: rgb(0,0,0); fill-opacity: 1.0; font-family: sans-serif; font-size: 12px;" >[40] methodReturningASession()</text></g><rect x="25" y="192" width="30" height="53" style="fill: rgb(255,175,175); fill-opacity: 1.0" /><rect x="25" y="192" width="30" height="53" style="stroke-width: 1.0;stroke: rgb(0,0,0);stroke-opacity: 1.0;stroke-linecap: square;; fill: none" /><rect x="40" y="212" width="147" height="23" style="fill: rgb(255,255,255); fill-opacity: 1.0" /><rect x="40" y="212" width="147" height="23" style="stroke-width: 1.0;stroke: rgb(0,0,0);stroke-opacity: 1.0;stroke-linecap: square;; fill: none" /><g ><text x="44" y="228" style="fill: rgb(0,0,0); fill-opacity: 1.0; font-family: sans-serif; font-size: 12px;" >[55] initiateFlow(session)</text></g><line x1="40" y1="255" x2="70" y2="255" style="stroke-width: 1.0;stroke: rgb(0,0,0);stroke-opacity: 1.0;stroke-linecap: square;" /><line x1="70" y1="255" x2="70" y2="275" style="stroke-width: 1.0;stroke: rgb(0,0,0);stroke-opacity: 1.0;stroke-linecap: square;" /><line x1="70" y1="275" x2="55" y2="275" style="stroke-width: 1.0;stroke: rgb(0,0,0);stroke-opacity: 1.0;stroke-linecap: square;" /><g style="fill: rgb(0,0,0); fill-opacity: 1.0; stroke: none" ><path d="M 55 275 L 62 271 L 62 279 Z "/></g><rect x="77" y="254" width="262" height="23" style="fill: rgb(255,255,255); fill-opacity: 1.0" /><g ><text x="81" y="270" style="fill: rgb(0,0,0); fill-opacity: 1.0; font-family: sans-serif; font-size: 12px;" >[42] methodWithSessionAsArgument(session)</text></g><rect x="25" y="265" width="30" height="53" style="fill: rgb(255,175,175); fill-opacity: 1.0" /><rect x="25" y="265" width="30" height="53" style="stroke-width: 1.0;stroke: rgb(0,0,0);stroke-opacity: 1.0;stroke-linecap: square;; fill: none" /><rect x="40" y="285" width="190" height="23" style="fill: rgb(255,255,255); fill-opacity: 1.0" /><rect x="40" y="285" width="190" height="23" style="stroke-width: 1.0;stroke: rgb(0,0,0);stroke-opacity: 1.0;stroke-linecap: square;; fill: none" /><g ><text x="44" y="301" style="fill: rgb(0,0,0); fill-opacity: 1.0; font-family: sans-serif; font-size: 12px;" >[60] initiateFlow(anotherSession)</text></g><line x1="40" y1="328" x2="70" y2="328" style="stroke-width: 1.0;stroke: rgb(0,0,0);stroke-opacity: 1.0;stroke-linecap: square;" /><line x1="70" y1="328" x2="70" y2="348" style="stroke-width: 1.0;stroke: rgb(0,0,0);stroke-opacity: 1.0;stroke-linecap: square;" /><line x1="70" y1="348" x2="55" y2="348" style="stroke-width: 1.0;stroke: rgb(0,0,0);stroke-opacity: 1.0;stroke-linecap: square;" /><g style="fill: rgb(0,0,0); fill-opacity: 1.0; stroke: none" ><path d="M 55 348 L 62 344 L 62 352 Z "/></g><rect x="77" y="327" width="190" height="23" style="fill: rgb(255,255,255); fill-opacity: 1.0" /><g ><text x="81" y="343" style="fill: rgb(0,0,0); fill-opacity: 1.0; font-family: sans-serif; font-size: 12px;" >[44] methodReturningASession()</text></g><rect x="25" y="338" width="30" height="53" style="fill: rgb(255,175,175); fill-opacity: 1.0" /><rect x="25" y="338" width="30" height="53" style="stroke-width: 1.0;stroke: rgb(0,0,0);stroke-opacity: 1.0;stroke-linecap: square;; fill: none" /><rect x="40" y="358" width="147" height="23" style="fill: rgb(255,255,255); fill-opacity: 1.0" /><rect x="40" y="358" width="147" height="23" style="stroke-width: 1.0;stroke: rgb(0,0,0);stroke-opacity: 1.0;stroke-linecap: square;; fill: none" /><g ><text x="44" y="374" style="fill: rgb(0,0,0); fill-opacity: 1.0; font-family: sans-serif; font-size: 12px;" >[55] initiateFlow(session)</text></g><line x1="40" y1="401" x2="70" y2="401" style="stroke-width: 1.0;stroke: rgb(0,0,0);stroke-opacity: 1.0;stroke-linecap: square;" /><line x1="70" y1="401" x2="70" y2="421" style="stroke-width: 1.0;stroke: rgb(0,0,0);stroke-opacity: 1.0;stroke-linecap: square;" /><line x1="70" y1="421" x2="55" y2="421" style="stroke-width: 1.0;stroke: rgb(0,0,0);stroke-opacity: 1.0;stroke-linecap: square;" /><g style="fill: rgb(0,0,0); fill-opacity: 1.0; stroke: none" ><path d="M 55 421 L 62 417 L 62 425 Z "/></g><rect x="77" y="400" width="375" height="23" style="fill: rgb(255,255,255); fill-opacity: 1.0" /><g ><text x="81" y="416" style="fill: rgb(0,0,0); fill-opacity: 1.0; font-family: sans-serif; font-size: 12px;" >[44] methodWithSessionAsArgument(methodReturningASession())</text></g><rect x="25" y="411" width="30" height="53" style="fill: rgb(255,175,175); fill-opacity: 1.0" /><rect x="25" y="411" width="30" height="53" style="stroke-width: 1.0;stroke: rgb(0,0,0);stroke-opacity: 1.0;stroke-linecap: square;; fill: none" /><rect x="40" y="431" width="190" height="23" style="fill: rgb(255,255,255); fill-opacity: 1.0" /><rect x="40" y="431" width="190" height="23" style="stroke-width: 1.0;stroke: rgb(0,0,0);stroke-opacity: 1.0;stroke-linecap: square;; fill: none" /><g ><text x="44" y="447" style="fill: rgb(0,0,0); fill-opacity: 1.0; font-family: sans-serif; font-size: 12px;" >[60] initiateFlow(anotherSession)</text></g><rect x="25" y="474" width="487" height="23" style="fill: rgb(255,255,255); fill-opacity: 1.0" /><g ><text x="29" y="490" style="fill: rgb(0,0,0); fill-opacity: 1.0; font-family: sans-serif; font-size: 12px;" >[46] ==&gt;&lt;== sendAndReceive(&lt;== &lt;&lt;String&gt;&gt;, ==&gt; &lt;&lt;Boolean&gt;&gt;)==&gt;&lt;==</text></g><rect x="705" y="10" width="67" height="31" style="fill: rgb(255,255,255); fill-opacity: 1.0" /><rect x="705" y="10" width="67" height="31" style="stroke-width: 1.0;stroke: rgb(0,0,0);stroke-opacity: 1.0;stroke-linecap: square;; fill: none" /><g style="fill: rgb(0,0,0); fill-opacity: 1.0; stroke: none" ><path d="M 718.51 26.68 L 717.04 22.95 L 715.55 26.68 Z  M 719.81 30 L 718.87 27.6 L 715.2 27.6 L 714.24 30 L 713.1 30 L 716.54 21.33 L 717.76 21.33 L 721.14 30 Z  M 724.64 30.15 Q 723.35 30.15 722.5 29.19 Q 721.65 28.24 721.65 26.78 Q 721.65 25.23 722.49 24.36 Q 723.33 23.5 724.84 23.5 Q 725.58 23.5 726.5 23.7 L 726.5 24.67 Q 725.52 24.38 724.91 24.38 Q 724.02 24.38 723.49 25.05 Q 722.95 25.71 722.95 26.82 Q 722.95 27.89 723.5 28.55 Q 724.05 29.21 724.94 29.21 Q 725.73 29.21 726.57 28.81 L 726.57 29.81 Q 725.45 30.15 724.64 30.15 Z  M 730.64 30.15 Q 729.35 30.15 728.5 29.19 Q 727.65 28.24 727.65 26.78 Q 727.65 25.23 728.49 24.36 Q 729.33 23.5 730.84 23.5 Q 731.58 23.5 732.5 23.7 L 732.5 24.67 Q 731.52 24.38 730.91 24.38 Q 730.02 24.38 729.49 25.05 Q 728.95 25.71 728.95 26.82 Q 728.95 27.89 729.5 28.55 Q 730.05 29.21 730.94 29.21 Q 731.73 29.21 732.57 28.81 L 732.57 29.81 Q 731.45 30.15 730.64 30.15 Z  M 738.82 29.79 Q 737.66 30.15 736.83 30.15 Q 735.43 30.15 734.54 29.21 Q 733.65 28.28 733.65 26.79 Q 733.65 25.34 734.43 24.42 Q 735.21 23.49 736.43 23.49 Q 737.59 23.49 738.22 24.31 Q 738.85 25.13 738.85 26.64 L 738.84 27 L 734.83 27 Q 735.08 29.27 737.05 29.27 Q 737.77 29.27 738.82 28.88 Z  M 734.88 26.13 L 737.69 26.13 Q 737.69 24.36 736.36 24.36 Q 735.03 24.36 734.88 26.13 Z  M 741.15 32.31 L 741.15 23.64 L 742.31 23.64 L 742.31 24.83 Q 743.02 23.5 744.44 23.5 Q 745.58 23.5 746.24 24.33 Q 746.9 25.17 746.9 26.62 Q 746.9 28.21 746.16 29.18 Q 745.41 30.15 744.19 30.15 Q 743.06 30.15 742.31 29.28 L 742.31 32.31 Z  M 742.31 28.48 Q 743.2 29.28 744.01 29.28 Q 745.67 29.28 745.67 26.74 Q 745.67 24.5 744.2 24.5 Q 743.23 24.5 742.31 25.55 Z  M 751.06 30.15 Q 750.19 30.15 749.69 29.64 Q 749.2 29.14 749.2 28.24 L 749.2 24.5 L 748.4 24.5 L 748.4 23.64 L 749.2 23.64 L 749.2 22.48 L 750.36 22.37 L 750.36 23.64 L 752.02 23.64 L 752.02 24.5 L 750.36 24.5 L 750.36 28.03 Q 750.36 29.28 751.43 29.28 Q 751.66 29.28 751.99 29.2 L 751.99 30 Q 751.46 30.15 751.06 30.15 Z  M 755.64 30.15 Q 754.28 30.15 753.46 29.24 Q 752.65 28.34 752.65 26.82 Q 752.65 25.28 753.47 24.39 Q 754.29 23.5 755.69 23.5 Q 757.09 23.5 757.9 24.39 Q 758.72 25.28 758.72 26.81 Q 758.72 28.37 757.9 29.26 Q 757.08 30.15 755.64 30.15 Z  M 755.66 29.28 Q 757.5 29.28 757.5 26.81 Q 757.5 24.36 755.69 24.36 Q 753.88 24.36 753.88 26.82 Q 753.88 29.28 755.66 29.28 Z  M 760.15 30 L 760.15 23.64 L 761.31 23.64 L 761.31 24.83 Q 761.99 23.5 763.3 23.5 Q 763.48 23.5 763.67 23.53 L 763.67 24.6 Q 763.37 24.5 763.14 24.5 Q 762.05 24.5 761.31 25.8 L 761.31 30 Z "/></g><line x1="713" y1="30.67" x2="764" y2="30.67" style="stroke-width: 1.0;stroke: rgb(0,0,0);stroke-opacity: 1.0;" /><line x1="720" y1="41" x2="720" y2="66" style="stroke-width: 1.0;stroke: rgb(0,0,0);stroke-opacity: 1.0;stroke-linejoin: bevel;stroke-dasharray: 3.0;" /><rect x="705" y="66" width="30" height="76" style="fill: rgb(166,112,170); fill-opacity: 1.0" /><rect x="705" y="66" width="30" height="76" style="stroke-width: 1.0;stroke: rgb(0,0,0);stroke-opacity: 1.0;stroke-linecap: square;; fill: none" /><rect x="720" y="76" width="234" height="23" style="fill: rgb(255,255,255); fill-opacity: 1.0" /><g ><text x="724" y="92" style="fill: rgb(0,0,0); fill-opacity: 1.0; font-family: sans-serif; font-size: 12px;" >[80] &lt;== receive(&lt;&lt;Boolean&gt;&gt;) &lt;==</text></g><rect x="720" y="109" width="209" height="23" style="fill: rgb(255,255,255); fill-opacity: 1.0" /><g ><text x="724" y="125" style="fill: rgb(0,0,0); fill-opacity: 1.0; font-family: sans-serif; font-size: 12px;" >[81] ==&gt; send(&lt;&lt;String&gt;&gt;) ==&gt;</text></g></svg>