<svg xmlns="http://www.w3.org/2000/svg" xmlns:xlink="http://www.w3.org/1999/xlink" xmlns:jfreesvg="http://www.jfree.org/jfreesvg/svg" width="998" height="519" text-rendering="auto" shape-rendering="auto">
<defs></defs>
<rect x="0" y="0" width="998" height="519" style="fill: rgb(255,255,255); fill-opacity: 1.0" /><rect x="10" y="10" width="60" height="31" style="fill: rgb(255,255,255); fill-opacity: 1.0" /><rect x="10" y="10" width="60" height="31" style="stroke-width: 1.0;stroke: rgb(0,0,0);stroke-opacity: 1.0;stroke-linecap: square;; fill: none" /><g style="fill: rgb(0,0,0); fill-opacity: 1.0; stroke: none" ><path d="M 19.11 30 L 19.11 21.33 L 20.34 21.33 L 20.34 30 Z  M 22.15 30 L 22.15 23.64 L 23.31 23.64 L 23.31 24.83 Q 24.22 23.5 25.55 23.5 Q 26.37 23.5 26.87 24.02 Q 27.36 24.54 27.36 25.43 L 27.36 30 L 26.2 30 L 26.2 25.8 Q 26.2 25.1 26 24.79 Q 25.79 24.49 25.31 24.49 Q 24.25 24.49 23.31 25.88 L 23.31 30 Z  M 29.15 30 L 29.15 23.64 L 30.31 23.64 L 30.31 30 Z  M 29.15 22.48 L 29.15 21.33 L 30.31 21.33 L 30.31 22.48 Z  M 34.06 30.15 Q 33.19 30.15 32.69 29.64 Q 32.2 29.14 32.2 28.24 L 32.2 24.5 L 31.4 24.5 L 31.4 23.64 L 32.2 23.64 L 32.2 22.48 L 33.36 22.37 L 33.36 23.64 L 35.02 23.64 L 35.02 24.5 L 33.36 24.5 L 33.36 28.03 Q 33.36 29.28 34.43 29.28 Q 34.66 29.28 34.99 29.2 L 34.99 30 Q 34.46 30.15 34.06 30.15 Z  M 36.15 30 L 36.15 23.64 L 37.31 23.64 L 37.31 30 Z  M 36.15 22.48 L 36.15 21.33 L 37.31 21.33 L 37.31 22.48 Z  M 42.44 29.19 Q 41.4 30.15 40.44 30.15 Q 39.65 30.15 39.12 29.65 Q 38.6 29.16 38.6 28.4 Q 38.6 27.36 39.48 26.8 Q 40.36 26.24 41.99 26.24 L 42.27 26.24 L 42.27 25.47 Q 42.27 24.36 41.13 24.36 Q 40.21 24.36 39.15 24.93 L 39.15 23.97 Q 40.32 23.5 41.34 23.5 Q 42.41 23.5 42.91 23.98 Q 43.42 24.46 43.42 25.47 L 43.42 28.35 Q 43.42 29.34 44.03 29.34 Q 44.11 29.34 44.25 29.32 L 44.33 29.96 Q 43.94 30.15 43.47 30.15 Q 42.66 30.15 42.44 29.19 Z  M 42.27 28.56 L 42.27 26.92 L 41.88 26.91 Q 40.93 26.91 40.34 27.27 Q 39.76 27.63 39.76 28.21 Q 39.76 28.63 40.05 28.92 Q 40.34 29.2 40.77 29.2 Q 41.49 29.2 42.27 28.56 Z  M 48.06 30.15 Q 47.19 30.15 46.69 29.64 Q 46.2 29.14 46.2 28.24 L 46.2 24.5 L 45.4 24.5 L 45.4 23.64 L 46.2 23.64 L 46.2 22.48 L 47.36 22.37 L 47.36 23.64 L 49.02 23.64 L 49.02 24.5 L 47.36 24.5 L 47.36 28.03 Q 47.36 29.28 48.43 29.28 Q 48.66 29.28 48.99 29.2 L 48.99 30 Q 48.46 30.15 48.06 30.15 Z  M 52.64 30.15 Q 51.28 30.15 50.46 29.24 Q 49.65 28.34 49.65 26.82 Q 49.65 25.28 50.47 24.39 Q 51.29 23.5 52.69 23.5 Q 54.09 23.5 54.9 24.39 Q 55.72 25.28 55.72 26.81 Q 55.72 28.37 54.9 29.26 Q 54.08 30.15 52.64 30.15 Z  M 52.66 29.28 Q 54.5 29.28 54.5 26.81 Q 54.5 24.36 52.69 24.36 Q 50.88 24.36 50.88 26.82 Q 50.88 29.28 52.66 29.28 Z  M 57.15 30 L 57.15 23.64 L 58.31 23.64 L 58.31 24.83 Q 58.99 23.5 60.3 23.5 Q 60.48 23.5 60.67 23.53 L 60.67 24.6 Q 60.37 24.5 60.14 24.5 Q 59.05 24.5 58.31 25.8 L 58.31 30 Z "/></g><line x1="18" y1="30.67" x2="61" y2="30.67" style="stroke-width: 1.0;stroke: rgb(0,0,0);stroke-opacity: 1.0;" /><line x1="25" y1="41" x2="25" y2="66" style="stroke-width: 1.0;stroke: rgb(0,0,0);stroke-opacity: 1.0;stroke-linejoin: bevel;stroke-dasharray: 3.0;" /><rect x="10" y="66" width="30" height="448" style="fill: rgb(166,112,170); fill-opacity: 1.0" /><rect x="10" y="66" width="30" height="448" style="stroke-width: 1.0;stroke: rgb(0,0,0);stroke-opacity: 1.0;stroke-linecap: square;; fill: none" /><rect x="25" y="76" width="150" height="23" style="fill: rgb(255,255,255); fill-opacity: 1.0" /><rect x="25" y="76" width="150" height="23" style="stroke-width: 1.0;stroke: rgb(0,0,0);stroke-opacity: 1.0;stroke-linecap: square;; fill: none" /><g ><text x="29" y="92" style="fill: rgb(0,0,0); fill-opacity: 1.0; font-family: sans-serif; font-size: 12px;" >[30] initiateFlow(session)</text></g><rect x="25" y="109" width="213" height="23" style="fill: rgb(255,255,255); fill-opacity: 1.0" /><g ><text x="29" y="125" style="fill: rgb(0,0,0); fill-opacity: 1.0; font-family: sans-serif; font-size: 12px;" >[32] ==&gt; send(&lt;&lt;String&gt;&gt;) ==&gt;</text></g><line x1="40" y1="142" x2="70" y2="142" style="stroke-width: 1.0;stroke: rgb(0,0,0);stroke-opacity: 1.0;stroke-linecap: square;" /><line x1="70" y1="142" x2="70" y2="162" style="stroke-width: 1.0;stroke: rgb(0,0,0);stroke-opacity: 1.0;stroke-linecap: square;" /><line x1="70" y1="162" x2="55" y2="162" style="stroke-width: 1.0;stroke: rgb(0,0,0);stroke-opacity: 1.0;stroke-linecap: square;" /><g style="fill: rgb(0,0,0); fill-opacity: 1.0; stroke: none" ><path d="M 55 162 L 62 158 L 62 166 Z "/></g><rect x="77" y="141" width="409" height="23" style="fill: rgb(255,255,255); fill-opacity: 1.0" /><g ><text x="81" y="157" style="fill: rgb(0,0,0); fill-opacity: 1.0; font-family: sans-serif; font-size: 12px;" >[34] subFlow &lt;&lt;GraphForDocsFlow.SendMultipleTransactionsFlow&gt;&gt;</text></g><rect x="25" y="152" width="30" height="176" style="fill: rgb(255,175,175); fill-opacity: 1.0" /><rect x="25" y="152" width="30" height="176" style="stroke-width: 1.0;stroke: rgb(0,0,0);stroke-opacity: 1.0;stroke-linecap: square;; fill: none" /><line x1="55" y1="172" x2="85" y2="172" style="stroke-width: 1.0;stroke: rgb(0,0,0);stroke-opacity: 1.0;stroke-linecap: square;" /><line x1="85" y1="172" x2="85" y2="192" style="stroke-width: 1.0;stroke: rgb(0,0,0);stroke-opacity: 1.0;stroke-linecap: square;" /><line x1="85" y1="192" x2="70" y2="192" style="stroke-width: 1.0;stroke: rgb(0,0,0);stroke-opacity: 1.0;stroke-linecap: square;" /><g style="fill: rgb(0,0,0); fill-opacity: 1.0; stroke: none" ><path d="M 70 192 L 77 188 L 77 196 Z "/></g><rect x="92" y="171" width="327" height="23" style="fill: rgb(255,255,255); fill-opacity: 1.0" /><g ><text x="96" y="187" style="fill: rgb(128,128,128); fill-opacity: 1.0; font-family: sans-serif; font-size: 12px;" >[60] for(SignedTransaction transaction : transactionList)</text></g><rect x="40" y="182" width="30" height="93" style="fill: rgb(192,192,192); fill-opacity: 1.0" /><rect x="40" y="182" width="30" height="93" style="stroke-width: 1.0;stroke: rgb(0,0,0);stroke-opacity: 1.0;stroke-linecap: square;; fill: none" /><rect x="55" y="202" width="226" height="23" style="fill: rgb(255,255,255); fill-opacity: 1.0" /><g ><text x="59" y="218" style="fill: rgb(0,0,0); fill-opacity: 1.0; font-family: sans-serif; font-size: 12px;" >[61] ==&gt; send(&lt;&lt;Boolean&gt;&gt;) ==&gt;</text></g><line x1="70" y1="235" x2="100" y2="235" style="stroke-width: 1.0;stroke: rgb(0,0,0);stroke-opacity: 1.0;stroke-linecap: square;" /><line x1="100" y1="235" x2="100" y2="255" style="stroke-width: 1.0;stroke: rgb(0,0,0);stroke-opacity: 1.0;stroke-linecap: square;" /><line x1="100" y1="255" x2="85" y2="255" style="stroke-width: 1.0;stroke: rgb(0,0,0);stroke-opacity: 1.0;stroke-linecap: square;" /><g style="fill: rgb(0,0,0); fill-opacity: 1.0; stroke: none" ><path d="M 85 255 L 92 251 L 92 259 Z "/></g><rect x="107" y="234" width="247" height="23" style="fill: rgb(255,255,255); fill-opacity: 1.0" /><g ><text x="111" y="250" style="fill: rgb(0,0,0); fill-opacity: 1.0; font-family: sans-serif; font-size: 12px;" >[62] subFlow &lt;&lt;SendTransactionFlow&gt;&gt;</text></g><rect x="55" y="245" width="30" height="20" style="fill: rgb(255,200,0); fill-opacity: 1.0" /><rect x="55" y="245" width="30" height="20" style="stroke-width: 1.0;stroke: rgb(0,0,0);stroke-opacity: 1.0;stroke-linecap: square;; fill: none" /><rect x="40" y="285" width="226" height="23" style="fill: rgb(255,255,255); fill-opacity: 1.0" /><g ><text x="44" y="301" style="fill: rgb(0,0,0); fill-opacity: 1.0; font-family: sans-serif; font-size: 12px;" >[64] ==&gt; send(&lt;&lt;Boolean&gt;&gt;) ==&gt;</text></g><line x1="55" y1="318" x2="70" y2="318" style="stroke-width: 1.0;stroke: rgb(0,0,0);stroke-opacity: 1.0;stroke-linecap: square;" /><line x1="70" y1="318" x2="70" y2="338" style="stroke-width: 1.0;stroke: rgb(0,0,0);stroke-opacity: 1.0;stroke-linecap: square;" /><line x1="70" y1="338" x2="40" y2="338" style="stroke-width: 1.0;stroke: rgb(0,0,0);stroke-opacity: 1.0;stroke-linecap: square;" /><g style="fill: rgb(0,0,0); fill-opacity: 1.0; stroke: none" ><path d="M 40 338 L 47 334 L 47 342 Z "/></g><rect x="77" y="317" width="98" height="23" style="fill: rgb(255,255,255); fill-opacity: 1.0" /><g ><text x="81" y="333" style="fill: rgb(128,128,128); fill-opacity: 1.0; font-family: sans-serif; font-size: 12px;" > &lt;&lt;Boolean&gt;&gt;</text></g><line x1="40" y1="358" x2="70" y2="358" style="stroke-width: 1.0;stroke: rgb(0,0,0);stroke-opacity: 1.0;stroke-linecap: square;" /><line x1="70" y1="358" x2="70" y2="378" style="stroke-width: 1.0;stroke: rgb(0,0,0);stroke-opacity: 1.0;stroke-linecap: square;" /><line x1="70" y1="378" x2="55" y2="378" style="stroke-width: 1.0;stroke: rgb(0,0,0);stroke-opacity: 1.0;stroke-linecap: square;" /><g style="fill: rgb(0,0,0); fill-opacity: 1.0; stroke: none" ><path d="M 55 378 L 62 374 L 62 382 Z "/></g><rect x="77" y="357" width="119" height="23" style="fill: rgb(255,255,255); fill-opacity: 1.0" /><g ><text x="81" y="373" style="fill: rgb(128,128,128); fill-opacity: 1.0; font-family: sans-serif; font-size: 12px;" >[37] if(returnValue)</text></g><rect x="25" y="368" width="30" height="53" style="fill: rgb(192,192,192); fill-opacity: 1.0" /><rect x="25" y="368" width="30" height="53" style="stroke-width: 1.0;stroke: rgb(0,0,0);stroke-opacity: 1.0;stroke-linecap: square;; fill: none" /><rect x="40" y="388" width="213" height="23" style="fill: rgb(255,255,255); fill-opacity: 1.0" /><g ><text x="44" y="404" style="fill: rgb(0,0,0); fill-opacity: 1.0; font-family: sans-serif; font-size: 12px;" >[38] ==&gt; send(&lt;&lt;String&gt;&gt;) ==&gt;</text></g><line x1="40" y1="431" x2="70" y2="431" style="stroke-width: 1.0;stroke: rgb(0,0,0);stroke-opacity: 1.0;stroke-linecap: square;" /><line x1="70" y1="431" x2="70" y2="451" style="stroke-width: 1.0;stroke: rgb(0,0,0);stroke-opacity: 1.0;stroke-linecap: square;" /><line x1="70" y1="451" x2="55" y2="451" style="stroke-width: 1.0;stroke: rgb(0,0,0);stroke-opacity: 1.0;stroke-linecap: square;" /><g style="fill: rgb(0,0,0); fill-opacity: 1.0; stroke: none" ><path d="M 55 451 L 62 447 L 62 455 Z "/></g><rect x="77" y="430" width="32" height="23" style="fill: rgb(255,255,255); fill-opacity: 1.0" /><g ><text x="81" y="446" style="fill: rgb(0,0,0); fill-opacity: 1.0; font-family: sans-serif; font-size: 12px;" >else</text></g><rect x="25" y="441" width="30" height="53" style="fill: rgb(192,192,192); fill-opacity: 1.0" /><rect x="25" y="441" width="30" height="53" style="stroke-width: 1.0;stroke: rgb(0,0,0);stroke-opacity: 1.0;stroke-linecap: square;; fill: none" /><rect x="40" y="461" width="213" height="23" style="fill: rgb(255,255,255); fill-opacity: 1.0" /><g ><text x="44" y="477" style="fill: rgb(0,0,0); fill-opacity: 1.0; font-family: sans-serif; font-size: 12px;" >[40] ==&gt; send(&lt;&lt;String&gt;&gt;) ==&gt;</text></g><rect x="496" y="10" width="68" height="31" style="fill: rgb(255,255,255); fill-opacity: 1.0" /><rect x="496" y="10" width="68" height="31" style="stroke-width: 1.0;stroke: rgb(0,0,0);stroke-opacity: 1.0;stroke-linecap: square;; fill: none" /><g style="fill: rgb(0,0,0); fill-opacity: 1.0; stroke: none" ><path d="M 509.51 26.68 L 508.04 22.95 L 506.55 26.68 Z  M 510.81 30 L 509.87 27.6 L 506.2 27.6 L 505.24 30 L 504.1 30 L 507.54 21.33 L 508.76 21.33 L 512.14 30 Z  M 515.64 30.15 Q 514.35 30.15 513.5 29.19 Q 512.65 28.24 512.65 26.78 Q 512.65 25.23 513.49 24.36 Q 514.33 23.5 515.84 23.5 Q 516.58 23.5 517.5 23.7 L 517.5 24.67 Q 516.52 24.38 515.91 24.38 Q 515.02 24.38 514.49 25.05 Q 513.95 25.71 513.95 26.82 Q 513.95 27.89 514.5 28.55 Q 515.05 29.21 515.94 29.21 Q 516.73 29.21 517.57 28.81 L 517.57 29.81 Q 516.45 30.15 515.64 30.15 Z  M 521.64 30.15 Q 520.35 30.15 519.5 29.19 Q 518.65 28.24 518.65 26.78 Q 518.65 25.23 519.49 24.36 Q 520.33 23.5 521.84 23.5 Q 522.58 23.5 523.5 23.7 L 523.5 24.67 Q 522.52 24.38 521.91 24.38 Q 521.02 24.38 520.49 25.05 Q 519.95 25.71 519.95 26.82 Q 519.95 27.89 520.5 28.55 Q 521.05 29.21 521.94 29.21 Q 522.73 29.21 523.57 28.81 L 523.57 29.81 Q 522.45 30.15 521.64 30.15 Z  M 529.82 29.79 Q 528.66 30.15 527.83 30.15 Q 526.43 30.15 525.54 29.21 Q 524.65 28.28 524.65 26.79 Q 524.65 25.34 525.43 24.42 Q 526.21 23.49 527.43 23.49 Q 528.59 23.49 529.22 24.31 Q 529.85 25.13 529.85 26.64 L 529.84 27 L 525.83 27 Q 526.08 29.27 528.05 29.27 Q 528.77 29.27 529.82 28.88 Z  M 525.88 26.13 L 528.69 26.13 Q 528.69 24.36 527.36 24.36 Q 526.03 24.36 525.88 26.13 Z  M 532.15 32.31 L 532.15 23.64 L 533.31 23.64 L 533.31 24.83 Q 534.02 23.5 535.44 23.5 Q 536.58 23.5 537.24 24.33 Q 537.9 25.17 537.9 26.62 Q 537.9 28.21 537.16 29.18 Q 536.41 30.15 535.19 30.15 Q 534.06 30.15 533.31 29.28 L 533.31 32.31 Z  M 533.31 28.48 Q 534.2 29.28 535.01 29.28 Q 536.67 29.28 536.67 26.74 Q 536.67 24.5 535.2 24.5 Q 534.23 24.5 533.31 25.55 Z  M 542.06 30.15 Q 541.19 30.15 540.69 29.64 Q 540.2 29.14 540.2 28.24 L 540.2 24.5 L 539.4 24.5 L 539.4 23.64 L 540.2 23.64 L 540.2 22.48 L 541.36 22.37 L 541.36 23.64 L 543.02 23.64 L 543.02 24.5 L 541.36 24.5 L 541.36 28.03 Q 541.36 29.28 542.43 29.28 Q 542.66 29.28 542.99 29.2 L 542.99 30 Q 542.46 30.15 542.06 30.15 Z  M 546.64 30.15 Q 545.28 30.15 544.46 29.24 Q 543.65 28.34 543.65 26.82 Q 543.65 25.28 544.47 24.39 Q 545.29 23.5 546.69 23.5 Q 548.09 23.5 548.9 24.39 Q 549.72 25.28 549.72 26.81 Q 549.72 28.37 548.9 29.26 Q 548.08 30.15 546.64 30.15 Z  M 546.66 29.28 Q 548.5 29.28 548.5 26.81 Q 548.5 24.36 546.69 24.36 Q 544.88 24.36 544.88 26.82 Q 544.88 29.28 546.66 29.28 Z  M 551.15 30 L 551.15 23.64 L 552.31 23.64 L 552.31 24.83 Q 552.99 23.5 554.3 23.5 Q 554.48 23.5 554.67 23.53 L 554.67 24.6 Q 554.37 24.5 554.14 24.5 Q 553.05 24.5 552.31 25.8 L 552.31 30 Z "/></g><line x1="504" y1="30.67" x2="555" y2="30.67" style="stroke-width: 1.0;stroke: rgb(0,0,0);stroke-opacity: 1.0;" /><line x1="511" y1="41" x2="511" y2="66" style="stroke-width: 1.0;stroke: rgb(0,0,0);stroke-opacity: 1.0;stroke-linejoin: bevel;stroke-dasharray: 3.0;" /><rect x="496" y="66" width="30" height="216" style="fill: rgb(166,112,170); fill-opacity: 1.0" /><rect x="496" y="66" width="30" height="216" style="stroke-width: 1.0;stroke: rgb(0,0,0);stroke-opacity: 1.0;stroke-linecap: square;; fill: none" /><rect x="511" y="76" width="226" height="23" style="fill: rgb(255,255,255); fill-opacity: 1.0" /><g ><text x="515" y="92" style="fill: rgb(0,0,0); fill-opacity: 1.0; font-family: sans-serif; font-size: 12px;" >[82] &lt;== receive(&lt;&lt;String&gt;&gt;) &lt;==</text></g><line x1="526" y1="109" x2="556" y2="109" style="stroke-width: 1.0;stroke: rgb(0,0,0);stroke-opacity: 1.0;stroke-linecap: square;" /><line x1="556" y1="109" x2="556" y2="129" style="stroke-width: 1.0;stroke: rgb(0,0,0);stroke-opacity: 1.0;stroke-linecap: square;" /><line x1="556" y1="129" x2="541" y2="129" style="stroke-width: 1.0;stroke: rgb(0,0,0);stroke-opacity: 1.0;stroke-linecap: square;" /><g style="fill: rgb(0,0,0); fill-opacity: 1.0; stroke: none" ><path d="M 541 129 L 548 125 L 548 133 Z "/></g><rect x="563" y="108" width="425" height="23" style="fill: rgb(255,255,255); fill-opacity: 1.0" /><g ><text x="567" y="124" style="fill: rgb(0,0,0); fill-opacity: 1.0; font-family: sans-serif; font-size: 12px;" >[84] subFlow &lt;&lt;GraphForDocsFlow.ReceiveMultipleTransactionsFlow&gt;&gt;</text></g><rect x="511" y="119" width="30" height="120" style="fill: rgb(255,175,175); fill-opacity: 1.0" /><rect x="511" y="119" width="30" height="120" style="stroke-width: 1.0;stroke: rgb(0,0,0);stroke-opacity: 1.0;stroke-linecap: square;; fill: none" /><line x1="541" y1="139" x2="571" y2="139" style="stroke-width: 1.0;stroke: rgb(0,0,0);stroke-opacity: 1.0;stroke-linecap: square;" /><line x1="571" y1="139" x2="571" y2="159" style="stroke-width: 1.0;stroke: rgb(0,0,0);stroke-opacity: 1.0;stroke-linecap: square;" /><line x1="571" y1="159" x2="556" y2="159" style="stroke-width: 1.0;stroke: rgb(0,0,0);stroke-opacity: 1.0;stroke-linecap: square;" /><g style="fill: rgb(0,0,0); fill-opacity: 1.0; stroke: none" ><path d="M 556 159 L 563 155 L 563 163 Z "/></g><rect x="578" y="138" width="360" height="23" style="fill: rgb(255,255,255); fill-opacity: 1.0" /><g ><text x="582" y="154" style="fill: rgb(0,0,0); fill-opacity: 1.0; font-family: sans-serif; font-size: 12px;" >[102] while((&lt;== receive(&lt;&lt;Boolean&gt;&gt;) &lt;==) || condition)</text></g><rect x="526" y="149" width="30" height="80" style="fill: rgb(192,192,192); fill-opacity: 1.0" /><rect x="526" y="149" width="30" height="80" style="stroke-width: 1.0;stroke: rgb(0,0,0);stroke-opacity: 1.0;stroke-linecap: square;; fill: none" /><line x1="556" y1="169" x2="586" y2="169" style="stroke-width: 1.0;stroke: rgb(0,0,0);stroke-opacity: 1.0;stroke-linecap: square;" /><line x1="586" y1="169" x2="586" y2="189" style="stroke-width: 1.0;stroke: rgb(0,0,0);stroke-opacity: 1.0;stroke-linecap: square;" /><line x1="586" y1="189" x2="571" y2="189" style="stroke-width: 1.0;stroke: rgb(0,0,0);stroke-opacity: 1.0;stroke-linecap: square;" /><g style="fill: rgb(0,0,0); fill-opacity: 1.0; stroke: none" ><path d="M 571 189 L 578 185 L 578 193 Z "/></g><rect x="593" y="168" width="271" height="23" style="fill: rgb(255,255,255); fill-opacity: 1.0" /><g ><text x="597" y="184" style="fill: rgb(0,0,0); fill-opacity: 1.0; font-family: sans-serif; font-size: 12px;" >[103] subFlow &lt;&lt;ReceiveTransactionFlow&gt;&gt;</text></g><rect x="541" y="179" width="30" height="30" style="fill: rgb(255,200,0); fill-opacity: 1.0" /><rect x="541" y="179" width="30" height="30" style="stroke-width: 1.0;stroke: rgb(0,0,0);stroke-opacity: 1.0;stroke-linecap: square;; fill: none" /><line x1="571" y1="199" x2="586" y2="199" style="stroke-width: 1.0;stroke: rgb(0,0,0);stroke-opacity: 1.0;stroke-linecap: square;" /><line x1="586" y1="199" x2="586" y2="219" style="stroke-width: 1.0;stroke: rgb(0,0,0);stroke-opacity: 1.0;stroke-linecap: square;" /><line x1="586" y1="219" x2="556" y2="219" style="stroke-width: 1.0;stroke: rgb(0,0,0);stroke-opacity: 1.0;stroke-linecap: square;" /><g style="fill: rgb(0,0,0); fill-opacity: 1.0; stroke: none" ><path d="M 556 219 L 563 215 L 563 223 Z "/></g><rect x="593" y="198" width="158" height="23" style="fill: rgb(255,255,255); fill-opacity: 1.0" /><g ><text x="597" y="214" style="fill: rgb(128,128,128); fill-opacity: 1.0; font-family: sans-serif; font-size: 12px;" > &lt;&lt;SignedTransaction&gt;&gt;</text></g><rect x="511" y="249" width="226" height="23" style="fill: rgb(255,255,255); fill-opacity: 1.0" /><g ><text x="515" y="265" style="fill: rgb(0,0,0); fill-opacity: 1.0; font-family: sans-serif; font-size: 12px;" >[85] &lt;== receive(&lt;&lt;String&gt;&gt;) &lt;==</text></g></svg>